<svg width="303" height="270" viewBox="0 0 303 270" fill="none" xmlns="http://www.w3.org/2000/svg">
<path d="M179.914 13.6392C175.735 20.0577 157.367 43.4759 169.099 119.086C175.701 161.632 192.94 267.324 194.773 282.3" stroke="black" stroke-width="50"/>
<path d="M167.84 106.707C167.84 143.401 148.434 178.28 116.417 185.105C84.4005 191.93 52.7513 173.995 23.2119 100.147" stroke="black" stroke-width="50" stroke-linejoin="round"/>
<path d="M171.661 106.25C197.947 120.92 260.604 149.345 277.108 212.614C280.776 236.912 256.202 247.09 187.249 212.614" stroke="black" stroke-width="50"/>
<path d="M138.837 278.639L146.192 177.639L176.837 278.639H138.837Z" fill="#020202"/>
<path d="M221.125 260.343C226.167 234.502 242.659 165.016 250.275 133.503C229.945 126.422 195.173 121.247 157.311 109.868C156.051 118.691 134.727 196.529 124.222 234.345C143.76 238.126 196.965 253.253 221.125 260.343Z" fill="#FF2301"/>
<path d="M277.108 212.613C280.776 236.912 256.202 247.09 187.249 212.613" stroke="black" stroke-width="50"/>
</svg>
